<svg width="1283" height="315" viewBox="0 0 1283 315" fill="none" xmlns="http://www.w3.org/2000/svg">
<path fill-rule="evenodd" clip-rule="evenodd" d="M462.821 138C464.521 138 466.183 137.846 467.792 137.551C469.104 137.844 470.473 138 471.886 138H577.814C580.511 138 583.096 137.514 585.484 136.626C585.797 137.093 586.122 137.551 586.461 138H638.988C642.772 132.976 645 126.82 645 120.171C645 103.234 630.55 89.5039 612.724 89.5039C610.764 89.5039 608.844 89.6699 606.981 89.988C606.667 73.9124 593.463 60.9767 577.221 60.9767C572.165 60.9767 567.404 62.23 563.234 64.4411C557.217 53.4551 545.501 46 532.034 46C517.964 46 505.805 54.1387 500.06 65.94C496.641 64.5784 492.908 63.8295 489 63.8295C473.828 63.8295 461.307 75.1165 459.467 89.7065C446.791 91.2503 437 101.427 437 113.752C437 127.144 448.56 138 462.821 138Z" fill="url(#paint0_linear_874_5605)"/>
<path d="M0 131.261H26.9014V150.279H34.172V116.021H77.0688V166.703H114.876V81.9892H151.956V168.497H162.399V140.77H193.399V172.021H200.67V111.084H223.209H269.741V160.652H306.094V115.702H362.805V150.279H395.523V79.3959L451.507 56.9209V132.99H490.041V155.465H544.571V215.47C544.571 217.42 542.991 219 541.041 219H3.53011C1.58048 219 0 217.42 0 215.47V131.261Z" fill="url(#paint1_linear_874_5605)"/>
<path d="M544.571 100.448H581.049V126.144H590.908V79.855H649.075V148.336H700.341V33.872H750.622V150.761H764.781V113.296H806.817V155.522H816.676V73.1853H847.238H910.335V140.16H959.63V79.4241H1036.53V126.144H1080.89V30.368L1156.81 0V102.784H1209.06V133.152H1283V215.47C1283 217.419 1281.42 219 1279.47 219H548.101C546.152 219 544.571 217.419 544.571 215.47V100.448Z" fill="url(#paint2_linear_874_5605)"/>
<path fill-rule="evenodd" clip-rule="evenodd" d="M-5.91724 163C-4.32519 163 -2.76923 162.855 -1.26352 162.577C-0.0330887 162.854 1.25151 163 2.57714 163H100.707C103.416 163 106.007 162.49 108.387 161.562C108.71 162.051 109.048 162.531 109.401 163H158.392C161.922 158.303 164 152.549 164 146.333C164 130.501 150.522 117.667 133.897 117.667C132.068 117.667 130.278 117.822 128.54 118.119C128.247 103.092 115.932 91 100.783 91C96.0675 91 91.6268 92.1715 87.7377 94.2384C82.125 83.9689 71.1981 77 58.6379 77C45.5145 77 34.1741 84.6079 28.8155 95.6395C25.6264 94.3668 22.1453 93.6667 18.5 93.6667C4.34922 93.6667 -7.32877 104.218 -9.0449 117.856C-20.8678 119.299 -30 128.812 -30 140.333C-30 152.852 -19.2178 163 -5.91724 163Z" fill="url(#paint3_linear_874_5605)"/>
<path fill-rule="evenodd" clip-rule="evenodd" d="M103.579 315C104.385 315 105.185 314.979 105.98 314.937C106.534 314.979 107.095 315 107.662 315L307.467 315L307.486 315C307.495 315 307.504 315 307.512 315H394.085C400.327 306.699 404 296.529 404 285.543C404 257.56 380.171 234.876 350.776 234.876C347.543 234.876 344.378 235.15 341.304 235.676C340.787 209.116 319.013 187.744 292.229 187.744C283.893 187.744 276.041 189.815 269.165 193.468C259.242 175.317 239.922 163 217.716 163C194.513 163 174.463 176.447 164.988 195.944C159.35 193.695 153.195 192.457 146.75 192.457C121.731 192.457 101.084 211.105 98.0495 235.211C77.1461 237.761 61 254.576 61 274.938C61 297.064 80.0634 315 103.579 315Z" fill="url(#paint4_linear_874_5605)" fill-opacity="0.8"/>
<defs>
<linearGradient id="paint0_linear_874_5605" x1="541" y1="46" x2="541" y2="138" gradientUnits="userSpaceOnUse">
<stop offset="0.234375" stop-color="white"/>
<stop offset="0.614583" stop-color="white" stop-opacity="0.734694"/>
<stop offset="1" stop-color="white" stop-opacity="0"/>
</linearGradient>
<linearGradient id="paint1_linear_874_5605" x1="272.286" y1="56.9209" x2="272.286" y2="219" gradientUnits="userSpaceOnUse">
<stop stop-color="#FFD9CF"/>
<stop offset="0.875" stop-color="#FFD9CF" stop-opacity="0"/>
</linearGradient>
<linearGradient id="paint2_linear_874_5605" x1="913.786" y1="0" x2="913.786" y2="219" gradientUnits="userSpaceOnUse">
<stop stop-color="#FFD9CF"/>
<stop offset="0.875" stop-color="#FFD9CF" stop-opacity="0"/>
</linearGradient>
<linearGradient id="paint3_linear_874_5605" x1="67" y1="77" x2="67" y2="163" gradientUnits="userSpaceOnUse">
<stop offset="0.234375" stop-color="white"/>
<stop offset="0.614583" stop-color="white" stop-opacity="0.734694"/>
<stop offset="1" stop-color="white" stop-opacity="0"/>
</linearGradient>
<linearGradient id="paint4_linear_874_5605" x1="232.5" y1="163" x2="232.5" y2="315" gradientUnits="userSpaceOnUse">
<stop offset="0.234375" stop-color="white"/>
<stop offset="0.614583" stop-color="white" stop-opacity="0.734694"/>
<stop offset="1" stop-color="white" stop-opacity="0"/>
</linearGradient>
</defs>
</svg>
