<?xml version="1.0" encoding="utf-8"?>
<!-- Generator: Adobe Illustrator 26.0.3, SVG Export Plug-In . SVG Version: 6.00 Build 0)  -->
<svg version="1.1" id="圖層_1" xmlns="http://www.w3.org/2000/svg" xmlns:xlink="http://www.w3.org/1999/xlink" x="0px" y="0px"
	 viewBox="0 0 31.2 43" style="enable-background:new 0 0 31.2 43;" xml:space="preserve">
<style type="text/css">
	.st0{fill:#E26B6B;}
	.st1{fill:#F1BFBF;}
	.st2{fill:#FFD4C7;}
</style>
<g>
	<path class="st0" d="M27,13c-0.5-1.3-1.2-2.5-2.2-3.6c-1.2-1.4-2.6-2.4-4.3-3.1c-0.1-0.1-0.2-0.1-0.4,0c-0.2,0.2-0.5,0.3-0.7,0.5
		c-1.2,0.8-2.2,1.8-3,3.1c-0.9,1.6-1.3,3.2-1.3,5c0,0.9,0,1.7,0,2.6c-0.2,0-0.2-0.1-0.3-0.2c-0.5-0.4-0.9-0.9-1.4-1.3
		c-1.4-1.3-2.4-2.8-2.9-4.7c-0.4-1.7-0.3-3.3,0.1-5c-0.5,0.1-1,0.4-1.4,0.7c-2.3,1.3-3.9,3.2-5,5.5c-0.1,0.1-0.1,0.3-0.2,0.5
		c0.1,0.2,0.3,0.4,0.4,0.6c1.9,2.8,4.6,4.2,8,4.1c0.8,0,1.7,0,2.6,0c-0.6,0.7-1.3,1.3-1.8,1.9c-1.7,1.8-3.8,2.9-6.3,3
		c-1,0.1-1.9-0.1-2.8-0.3c0.5,1.3,1.2,2.4,2.1,3.5c0.6,0.7,1.2,1.2,1.9,1.8c0.7,0.5,1.5,1,2.3,1.3c0,0,0,0,0.1,0
		c1.5-0.9,2.7-2,3.5-3.5c0.7-1.3,1.1-2.7,1.2-4.2c0-1.2,0-2.3,0-3.5c-0.1-0.2,0-0.3,0.1-0.4c0.6-0.6,1.2-1.2,1.7-1.8
		c1.5-1.6,3.3-2.6,5.5-2.9C24.2,12.4,25.6,12.7,27,13z"/>
	<path class="st1" d="M27,13c-1.4-0.3-2.9-0.6-4.3-0.4c-2.2,0.3-4,1.3-5.5,2.9c-0.6,0.6-1.2,1.2-1.7,1.8c-0.1,0.1-0.2,0.2-0.1,0.4
		c0,0,0,0,0-0.1c0.1-0.1,0.2-0.1,0.3-0.1c1,0,2,0,2.9,0c2.4,0,4.5,0.8,6.4,2.4c0.8,0.7,1.4,1.6,1.9,2.5c0.4-0.7,0.6-1.4,0.7-2.2
		c0.5-2.4,0.3-4.8-0.5-7.1C27.1,13.1,27,13.1,27,13z"/>
	<path class="st0" d="M26.9,22.5c-0.6-0.9-1.1-1.8-1.9-2.5c-1.8-1.6-3.9-2.5-6.4-2.4c-1,0-2,0-2.9,0c-0.1,0-0.2,0-0.3,0.1
		c0.9,0.8,1.8,1.7,2.7,2.6c0.5,0.6,1,1.2,1.3,1.9c1.1,2.2,1.3,4.5,0.6,6.9c1.2-0.4,2.3-1.1,3.3-1.9c1.5-1.2,2.6-2.7,3.4-4.4
		C26.8,22.7,26.9,22.6,26.9,22.5z"/>
	<path class="st1" d="M20.1,29.1c0.7-2.4,0.5-4.7-0.6-6.9c-0.4-0.7-0.8-1.3-1.3-1.9c-0.9-0.9-1.8-1.8-2.7-2.6c0,0,0,0,0,0.1
		c0,1.2,0,2.3,0,3.5c0,1.5-0.4,2.9-1.2,4.2c-0.8,1.5-2,2.6-3.5,3.5c3,1.3,6.1,1.4,9.2,0.3C19.9,29.2,20,29.1,20.1,29.1z"/>
	<path class="st1" d="M10.8,6.3c-0.4,1.7-0.5,3.3-0.1,5c0.5,1.9,1.5,3.4,2.9,4.7c0.5,0.4,0.9,0.9,1.4,1.3c0.1,0.1,0.1,0.2,0.3,0.2
		c0-0.9,0-1.7,0-2.6c-0.1-1.8,0.4-3.5,1.3-5c0.7-1.3,1.7-2.3,3-3.1c0.2-0.2,0.5-0.3,0.7-0.5c-0.7-0.5-1.6-0.6-2.4-0.8
		c-0.4-0.1-0.8-0.1-1.2-0.2c-1.8-0.1-3.6,0.1-5.3,0.8C11.2,6.2,11,6.2,10.8,6.3z"/>
	<path class="st1" d="M4.2,22.3c0.9,0.2,1.9,0.3,2.8,0.3c2.5-0.2,4.6-1.2,6.3-3c0.6-0.6,1.2-1.3,1.8-1.9c-0.9,0-1.7,0-2.6,0
		c-3.4,0-6.1-1.4-8-4.1c-0.1-0.2-0.3-0.4-0.4-0.6c-0.7,1.5-0.9,3-0.9,4.6c0,1.6,0.3,3.1,0.8,4.5C4.1,22.2,4.2,22.3,4.2,22.3z"/>
	<path class="st2" d="M10.6,28.9c-0.8-0.4-1.6-0.8-2.3-1.3c-1.6,2.8-3.3,5.7-4.9,8.5c-0.2,0.3-0.1,0.4,0.2,0.5
		c0.6,0.3,1.1,0.6,1.7,1c0.2,0.1,0.3,0.1,0.4-0.1C7.3,34.7,9,31.8,10.6,28.9z"/>
</g>
</svg>
