<svg width="39" height="43" viewBox="0 0 39 43" fill="none" xmlns="http://www.w3.org/2000/svg">
<path d="M33.4048 12.4821C32.9257 11.1376 32.1558 9.96925 31.2197 8.90693C30.0191 7.54162 28.5761 6.50654 26.9124 5.77542C26.7915 5.72177 26.6778 5.67232 26.5472 5.73908C26.317 5.89703 26.0898 6.05829 25.8562 6.21102C24.6365 7.00289 23.6316 8.01579 22.9039 9.26786C22.0021 10.8185 21.5873 12.5081 21.649 14.3097C21.679 15.1785 21.6801 16.0468 21.695 16.9278C21.5419 16.9186 21.4826 16.8311 21.4073 16.7601C20.9564 16.3237 20.5129 15.8802 20.0498 15.4593C18.6315 14.1687 17.6038 12.6383 17.1118 10.7676C16.6708 9.0912 16.7707 7.42657 17.1908 5.76424C16.6743 5.88933 16.2263 6.1671 15.7762 6.42907C13.5259 7.74083 11.8687 9.59533 10.758 11.9446C10.6889 12.0922 10.6438 12.2487 10.5876 12.4021C10.7273 12.6023 10.8662 12.8037 11.0047 13.0032C12.9364 15.7972 15.5939 17.1941 18.9973 17.1508C19.8323 17.1401 20.6675 17.1263 21.5735 17.113C20.9249 17.7887 20.3185 18.408 19.7239 19.0405C18.0139 20.8549 15.9366 21.8981 13.4315 22.0561C12.4706 22.1169 11.5311 21.9671 10.593 21.7955C11.0647 23.1051 11.8287 24.2361 12.7307 25.282C13.311 25.9531 13.9798 26.5298 14.6789 27.0708C15.4121 27.5862 16.185 28.0357 17.0001 28.4093C17.0244 28.412 17.0467 28.4153 17.071 28.418C18.5411 27.5509 19.7446 26.4038 20.5879 24.918C21.3198 23.6279 21.7342 22.2273 21.7506 20.7325C21.762 19.571 21.7415 18.4088 21.7335 17.2473C21.6371 17.0673 21.7275 16.9498 21.853 16.8219C22.4387 16.2246 23.0226 15.6246 23.5962 15.0171C25.0964 13.429 26.9163 12.4569 29.0813 12.1267C30.554 11.9042 31.9812 12.1579 33.4048 12.4821Z" fill="#E26B6B"/>
<path d="M33.4047 12.482C31.9811 12.1577 30.5539 11.904 29.0836 12.128C26.9186 12.4581 25.0987 13.4303 23.5986 15.0184C23.0242 15.6271 22.441 16.2258 21.8553 16.8232C21.7298 16.9511 21.6401 17.0673 21.7358 17.2486C21.7522 17.2257 21.7686 17.2029 21.7855 17.182C21.8711 17.1037 21.9773 17.1101 22.0826 17.1095C23.0596 17.0936 24.037 17.0714 25.0149 17.0624C27.4511 17.0375 29.5626 17.8607 31.3712 19.4881C32.1593 20.1968 32.7332 21.0694 33.3042 21.9468C33.6836 21.2562 33.8775 20.5005 34.0416 19.7406C34.5631 17.3289 34.3837 14.9699 33.4995 12.6676C33.4751 12.6034 33.4367 12.5441 33.4047 12.482Z" fill="#F1BFBF"/>
<path d="M33.3021 21.9454C32.7311 21.068 32.1572 20.1954 31.3691 19.4867C29.5617 17.8599 27.4491 17.036 25.0128 17.0609C24.0361 17.0707 23.0588 17.0929 22.0805 17.1081C21.9745 17.1099 21.8695 17.1042 21.7834 17.1806C22.7134 18.0212 23.6193 18.8868 24.4858 19.7926C25.0279 20.3592 25.4655 21.0061 25.8193 21.7031C26.9398 23.9124 27.1088 26.2138 26.4448 28.5868C27.6814 28.1632 28.7745 27.4873 29.7863 26.6722C31.261 25.4863 32.3702 24.0102 33.1851 22.3076C33.2396 22.1936 33.2636 22.0653 33.3021 21.9454Z" fill="#E26B6B"/>
<path d="M26.4451 28.589C27.1098 26.2148 26.94 23.9146 25.8195 21.7053C25.4658 21.0083 25.0282 20.3614 24.4861 19.7948C23.6196 18.889 22.7137 18.0234 21.7837 17.1828C21.7673 17.2056 21.7509 17.2284 21.7339 17.2494C21.74 18.4113 21.7625 19.573 21.751 20.7346C21.7359 22.23 21.3202 23.6299 20.5883 24.92C19.7469 26.4053 18.5422 27.5517 17.0715 28.42C20.0993 29.7157 23.1632 29.7818 26.2595 28.6838C26.3253 28.662 26.3837 28.6198 26.4451 28.589Z" fill="#F1BFBF"/>
<path d="M17.191 5.76438C16.7709 7.42671 16.671 9.09134 17.112 10.7677C17.604 12.6384 18.6317 14.1689 20.05 15.4595C20.5143 15.881 20.9578 16.3245 21.4075 16.7602C21.4809 16.8317 21.5402 16.9193 21.6952 16.9279C21.6816 16.0476 21.6792 15.1786 21.6492 14.3099C21.5875 12.5083 22.0023 10.8187 22.9041 9.268C23.6318 8.01593 24.6367 7.00303 25.8565 6.21116C26.09 6.05843 26.3172 5.89717 26.5474 5.73922C25.8173 5.25471 24.9752 5.11263 24.1397 4.95341C23.7598 4.88108 23.3746 4.82348 22.9894 4.7966C21.1869 4.67525 19.4259 4.86543 17.7378 5.55334C17.5578 5.62717 17.3739 5.69386 17.191 5.76438Z" fill="#F1BFBF"/>
<path d="M10.5936 21.7973C11.5318 21.9689 12.472 22.1175 13.4322 22.0579C15.9365 21.9011 18.0134 20.856 19.7246 19.0423C20.3197 18.4117 20.9256 17.7905 21.5742 17.1147C20.6682 17.1281 19.833 17.1419 18.998 17.1526C15.5946 17.1959 12.9371 15.7989 11.0054 13.005C10.8664 12.8036 10.7267 12.6033 10.5883 12.4038C9.93346 13.8822 9.65127 15.44 9.63873 17.0484C9.6269 18.6136 9.90652 20.1274 10.4835 21.585C10.513 21.657 10.5572 21.7261 10.5936 21.7973Z" fill="#F1BFBF"/>
<path d="M17.0005 28.4113C16.1861 28.0365 15.4125 27.5882 14.6793 27.0728C13.0422 29.9083 11.41 32.7466 9.76078 35.5751C9.59306 35.8628 9.64794 35.9721 9.917 36.1161C10.4929 36.4227 11.0567 36.7531 11.613 37.0936C11.8276 37.2256 11.9271 37.2184 12.0616 36.9826C13.7021 34.1216 15.3528 31.2681 17.0005 28.4113Z" fill="#FFD4C7"/>
</svg>
