<svg width="39" height="39" viewBox="0 0 39 39" fill="none" xmlns="http://www.w3.org/2000/svg">
<path d="M5.38378 10.3718C5.86287 9.02722 6.63276 7.8589 7.56886 6.79658C8.7695 5.43127 10.2125 4.39619 11.8762 3.66507C11.9971 3.61142 12.1108 3.56197 12.2414 3.62873C12.4715 3.78668 12.6987 3.94794 12.9323 4.10067C14.1521 4.89254 15.157 5.90544 15.8847 7.15751C16.7865 8.70818 17.2013 10.3978 17.1396 12.1994C17.1096 13.0681 17.1084 13.9364 17.0936 14.8175C17.2466 14.8083 17.306 14.7207 17.3813 14.6497C17.8322 14.2133 18.2757 13.7698 18.7388 13.349C20.157 12.0584 21.1848 10.5279 21.6768 8.65725C22.1178 6.98085 22.0179 5.31622 21.5978 3.65389C22.1143 3.77898 22.5623 4.05675 23.0124 4.31872C25.2626 5.63048 26.9198 7.48498 28.0306 9.83429C28.0997 9.98185 28.1448 10.1384 28.201 10.2917C28.0613 10.4919 27.9223 10.6933 27.7839 10.8928C25.8521 13.6868 23.1947 15.0838 19.7913 15.0404C18.9563 15.0297 18.1211 15.0159 17.2151 15.0026C17.8637 15.6783 18.4701 16.2976 19.0647 16.9302C20.7746 18.7445 22.852 19.7877 25.3571 19.9458C26.318 20.0066 27.2575 19.8568 28.1956 19.6851C27.7238 20.9948 26.9599 22.1258 26.0579 23.1716C25.4775 23.8427 24.8088 24.4195 24.1097 24.9604C23.3765 25.4759 22.6036 25.9253 21.7885 26.299C21.7642 26.3017 21.7418 26.3049 21.7176 26.3076C20.2475 25.4405 19.044 24.2935 18.2007 22.8076C17.4688 21.5176 17.0544 20.1169 17.038 18.6222C17.0266 17.4606 17.0471 16.2984 17.0551 15.137C17.1515 14.9569 17.0611 14.8395 16.9355 14.7116C16.3499 14.1142 15.766 13.5143 15.1923 12.9068C13.6922 11.3187 11.8723 10.3465 9.70732 10.0164C8.23459 9.79383 6.80738 10.0475 5.38378 10.3718Z" fill="#E26B6B"/>
<path d="M5.38388 10.3716C6.80748 10.0473 8.2347 9.79368 9.705 10.0176C11.87 10.3478 13.6899 11.3199 15.19 12.908C15.7644 13.5167 16.3476 14.1155 16.9332 14.7128C17.0588 14.8407 17.1485 14.9569 17.0528 15.1382C17.0364 15.1154 17.02 15.0925 17.003 15.0716C16.9175 14.9934 16.8113 14.9998 16.7059 14.9992C15.7289 14.9832 14.7516 14.961 13.7737 14.952C11.3374 14.9271 9.226 15.7503 7.41736 17.3778C6.62929 18.0864 6.05541 18.959 5.48434 19.8364C5.105 19.1458 4.91107 18.3902 4.74698 17.6302C4.22547 15.2186 4.40483 12.8595 5.28908 10.5572C5.31344 10.4931 5.35187 10.4337 5.38388 10.3716Z" fill="#F1BFBF"/>
<path d="M5.48643 19.835C6.0575 18.9576 6.63138 18.085 7.41945 17.3764C9.22688 15.7496 11.3395 14.9257 13.7758 14.9506C14.7524 14.9603 15.7298 14.9825 16.708 14.9978C16.8141 14.9995 16.919 14.9939 17.0051 15.0702C16.0752 15.9109 15.1692 16.7764 14.3027 17.6822C13.7606 18.2489 13.323 18.8957 12.9693 19.5927C11.8488 21.802 11.6798 24.1034 12.3438 26.4764C11.1072 26.0529 10.0141 25.3769 9.00232 24.5619C7.52756 23.376 6.41841 21.8998 5.60345 20.1972C5.54897 20.0833 5.52497 19.955 5.48643 19.835Z" fill="#E26B6B"/>
<path d="M12.3435 26.4786C11.6788 24.1044 11.8486 21.8042 12.9691 19.595C13.3228 18.8979 13.7604 18.2511 14.3025 17.6844C15.169 16.7786 16.0749 15.9131 17.0049 15.0724C17.0213 15.0952 17.0377 15.1181 17.0546 15.139C17.0485 16.301 17.0261 17.4627 17.0375 18.6242C17.0527 20.1196 17.4683 21.5196 18.2002 22.8096C19.0416 24.295 20.2463 25.4413 21.7171 26.3097C18.6893 27.6054 15.6253 27.6714 12.5291 26.5734C12.4632 26.5517 12.4049 26.5094 12.3435 26.4786Z" fill="#F1BFBF"/>
<path d="M21.5976 3.65403C22.0177 5.31636 22.1176 6.98098 21.6766 8.65739C21.1846 10.5281 20.1568 12.0585 18.7386 13.3491C18.2743 13.7707 17.8307 14.2142 17.3811 14.6499C17.3077 14.7214 17.2483 14.8089 17.0934 14.8176C17.107 13.9373 17.1094 13.0683 17.1394 12.1995C17.2011 10.3979 16.7863 8.70832 15.8845 7.15765C15.1568 5.90558 14.1519 4.89268 12.9321 4.10081C12.6985 3.94808 12.4713 3.78682 12.2412 3.62887C12.9712 3.14435 13.8134 3.00228 14.6489 2.84306C15.0288 2.77073 15.414 2.71313 15.7992 2.68625C17.6017 2.56489 19.3627 2.75508 21.0508 3.44299C21.2307 3.51682 21.4147 3.58351 21.5976 3.65403Z" fill="#F1BFBF"/>
<path d="M28.1949 19.6869C27.2568 19.8586 26.3166 20.0072 25.3564 19.9476C22.852 19.7907 20.7751 18.7456 19.064 16.932C18.4688 16.3013 17.863 15.6801 17.2144 15.0044C18.1204 15.0177 18.9556 15.0315 19.7906 15.0422C23.194 15.0855 25.8515 13.6886 27.7832 10.8946C27.9221 10.6932 28.0618 10.493 28.2003 10.2935C28.8551 11.7718 29.1373 13.3296 29.1498 14.9381C29.1617 16.5033 28.8821 18.017 28.3051 19.4747C28.2755 19.5467 28.2314 19.6158 28.1949 19.6869Z" fill="#F1BFBF"/>
<path d="M21.788 26.301C22.6024 25.9261 23.376 25.4778 24.1093 24.9624C25.7464 27.7979 27.3786 30.6363 29.0278 33.4648C29.1955 33.7525 29.1406 33.8617 28.8716 34.0057C28.2957 34.3124 27.7319 34.6427 27.1756 34.9833C26.961 35.1153 26.8615 35.1081 26.727 34.8723C25.0865 32.0113 23.4358 29.1578 21.788 26.301Z" fill="#FFD4C7"/>
</svg>
